HIERARCHY
ROOT Hips
{
	OFFSET 200.325394 91.900726 -529.822571
	CHANNELS 6 Xposition Yposition Zposition Zrotation Yrotation Xrotation 
	JOINT LeftUpLeg
	{
		OFFSET 0.103461 1.857843 10.548505
		CHANNELS 3 Zrotation Yrotation Xrotation
		JOINT LeftLeg
		{
			OFFSET 43.500000 -0.000019 0.000004
			CHANNELS 3 Zrotation Yrotation Xrotation
			JOINT LeftFoot
			{
				OFFSET 42.372200 0.000000 -0.000006
				CHANNELS 3 Zrotation Yrotation Xrotation
				JOINT LeftToe
				{
					OFFSET 17.299971 -0.000010 0.000000
					CHANNELS 3 Zrotation Yrotation Xrotation
					End Site
					{
						OFFSET 0.000000 0.000000 0.000000
					}
				}
			}
		}
	}
	JOINT RightUpLeg
	{
		OFFSET 0.103458 1.857807 -10.548507
		CHANNELS 3 Zrotation Yrotation Xrotation
		JOINT RightLeg
		{
			OFFSET 43.500042 -0.000019 0.000008
			CHANNELS 3 Zrotation Yrotation Xrotation
			JOINT RightFoot
			{
				OFFSET 42.372253 0.000038 0.000015
				CHANNELS 3 Zrotation Yrotation Xrotation
				JOINT RightToe
				{
					OFFSET 17.299997 -0.000003 0.000002
					CHANNELS 3 Zrotation Yrotation Xrotation
					End Site
					{
						OFFSET 0.000000 0.000000 0.000000
					}
				}
			}
		}
	}
	JOINT Spine
	{
		OFFSET 6.901968 -2.603718 -0.000004
		CHANNELS 3 Zrotation Yrotation Xrotation
		JOINT Spine1
		{
			OFFSET 12.588099 -0.000002 -0.000004
			CHANNELS 3 Zrotation Yrotation Xrotation
			JOINT Spine2
			{
				OFFSET 12.343199 -0.000021 0.000011
				CHANNELS 3 Zrotation Yrotation Xrotation
				JOINT Neck
				{
					OFFSET 25.832893 -0.000019 0.000005
					CHANNELS 3 Zrotation Yrotation Xrotation
					JOINT Head
					{
						OFFSET 11.766620 0.000044 -0.000010
						CHANNELS 3 Zrotation Yrotation Xrotation
						End Site
						{
							OFFSET 0.000000 0.000000 0.000000
						}
					}
				}
				JOINT LeftShoulder
				{
					OFFSET 19.745899 -1.480341 6.000097
					CHANNELS 3 Zrotation Yrotation Xrotation
					JOINT LeftArm
					{
						OFFSET 11.284135 -0.000004 -0.000021
						CHANNELS 3 Zrotation Yrotation Xrotation
						JOINT LeftForeArm
						{
							OFFSET 33.000050 0.000003 0.000037
							CHANNELS 3 Zrotation Yrotation Xrotation
							JOINT LeftHand
							{
								OFFSET 25.200003 0.000046 -0.000005
								CHANNELS 3 Zrotation Yrotation Xrotation
								End Site
								{
									OFFSET 0.000000 0.000000 0.000000
								}
							}
						}
					}
				}
				JOINT RightShoulder
				{
					OFFSET 19.746103 -1.480375 -6.000072
					CHANNELS 3 Zrotation Yrotation Xrotation
					JOINT RightArm
					{
						OFFSET 11.284153 -0.000009 -0.000002
						CHANNELS 3 Zrotation Yrotation Xrotation
						JOINT RightForeArm
						{
							OFFSET 33.000084 -0.000018 0.000013
							CHANNELS 3 Zrotation Yrotation Xrotation
							JOINT RightHand
							{
								OFFSET 25.199766 0.000167 0.000417
								CHANNELS 3 Zrotation Yrotation Xrotation
								End Site
								{
									OFFSET 0.000000 0.000000 0.000000
								}
							}
						}
					}
				}
			}
		}
	}
}
MOTION
Frames: 7
Frame Time: 0.033333
200.325394 91.900726 -529.822571 91.545715 3.471192 90.945055 -174.008836 -0.593803 -178.103849 -6.623371 -3.025302 -2.384005 80.900387 1.702212 -0.153939 21.454551 0.003093 0.000001 -176.872079 2.005703 -178.875182 -14.228547 1.630112 2.098884 84.329832 -1.504247 0.022627 21.454557 -0.003106 -0.000017 5.943940 -0.472548 -0.118798 1.854305 -0.934301 -0.241374 1.536157 -0.935609 -0.235737 20.131257 5.979100 0.074634 -16.746149 -4.903369 1.742197 -56.137229 -83.130273 -126.268246 -13.509909 -3.631901 -4.948292 -6.287023 -12.571950 0.841852 14.360401 6.343541 8.797104 -119.744459 89.034904 62.017052 -2.320801 -0.153785 10.262609 -13.469562 17.692673 -1.205095 17.436486 4.800740 -8.896482 
200.326599 91.901993 -529.830688 91.545715 3.468396 90.969008 -174.023835 -0.593813 -178.080066 -6.630565 -3.025306 -2.384012 80.894028 1.702210 -0.153938 21.454550 0.003089 -0.000002 -176.877324 2.005693 -178.867710 -14.228546 1.634067 2.108544 84.324382 -1.510650 0.022620 21.454560 -0.003114 -0.000018 5.943952 -0.472533 -0.118804 1.857995 -0.929819 -0.241358 1.539858 -0.931117 -0.235743 20.144069 5.958743 0.074645 -16.742631 -4.885642 1.730235 -56.075740 -83.169731 -126.325824 -13.490958 -3.594652 -5.073599 -6.324026 -12.588491 0.841848 14.327891 6.563784 8.488627 -119.859151 89.038155 61.901704 -2.338388 -0.144666 10.299661 -13.446743 17.623871 -1.200644 17.452846 4.891837 -8.978861 
200.328903 91.905006 -529.850098 91.545729 3.461042 91.025070 -174.059694 -0.593797 -178.024195 -6.646726 -3.025297 -2.384007 80.878585 1.702207 -0.153938 21.454550 0.003085 -0.000001 -176.890316 2.005706 -178.851645 -14.228546 1.643696 2.131914 84.311131 -1.526203 0.022628 21.454560 -0.003099 -0.000016 5.943939 -0.472545 -0.118801 1.866552 -0.918846 -0.249071 1.548418 -0.920189 -0.243517 20.162237 5.903303 0.074639 -16.722072 -4.839689 1.706923 -56.118170 -83.233081 -126.277234 -13.480399 -3.560953 -5.192254 -6.366937 -12.583181 0.841848 14.237599 7.130330 7.977179 -119.896758 89.063092 61.862499 -2.378558 -0.144577 10.379424 -13.408211 17.478871 -1.191331 17.445362 5.203813 -8.995802 
200.329803 91.908257 -529.869324 91.549151 3.451380 91.082185 -174.095566 -0.593798 -177.968024 -6.658175 -3.025300 -2.384010 80.860308 1.702205 -0.153939 21.454553 0.003104 0.000000 -176.905069 2.009194 -178.839802 -14.228548 1.652622 2.158719 84.297498 -1.543926 0.027287 21.454560 -0.003108 -0.000017 5.943947 -0.472545 -0.118805 1.873193 -0.911754 -0.258784 1.555058 -0.913172 -0.253257 20.179883 5.873980 0.074768 -16.692825 -4.809092 1.694257 -56.124890 -83.280257 -126.265910 -13.479850 -3.547684 -5.234734 -6.391620 -12.609812 0.841853 14.193340 7.602171 8.061839 -120.043976 89.094101 61.712521 -2.395821 -0.158440 10.388396 -13.412507 17.405291 -1.186767 17.473128 5.301431 -9.013283 
200.330902 91.911491 -529.884277 91.555196 3.438968 91.131164 -174.124007 -0.593785 -177.920199 -6.656775 -3.025292 -2.384008 80.838929 1.702202 -0.153933 21.454553 0.003091 -0.000001 -176.921502 2.013534 -178.837971 -14.228549 1.661542 2.186713 84.285880 -1.562299 0.032641 21.454557 -0.003106 -0.000017 5.943951 -0.472551 -0.118805 1.876154 -0.912474 -0.266795 1.558029 -0.913945 -0.261267 20.199181 5.899935 0.083812 -16.656965 -4.812414 1.701796 -55.976187 -83.305317 -126.411830 -13.483260 -3.537611 -5.230068 -6.405002 -12.639930 0.841847 14.181792 7.880537 8.178090 -121.023726 89.112208 60.731740 -2.392555 -0.164797 10.326164 -13.436621 17.420922 -1.187918 17.483993 5.125289 -8.991066 
200.332901 91.914383 -529.893311 91.560701 3.429158 91.162781 -174.137818 -0.588902 -177.889955 -6.643738 -3.025309 -2.384022 80.817469 1.702191 -0.153931 21.454551 0.003096 0.000001 -176.933592 2.016995 -178.851331 -14.228548 1.669961 2.213595 84.275525 -1.579760 0.038601 21.454557 -0.003099 -0.000017 5.944347 -0.472532 -0.118813 1.878058 -0.916921 -0.269223 1.559895 -0.918382 -0.263685 20.218888 5.934663 0.096502 -16.617133 -4.818574 1.713831 -55.804831 -83.316779 -126.581779 -13.484422 -3.538026 -5.194492 -6.410134 -12.671471 0.841859 14.173392 7.977006 8.259312 -122.137757 89.121292 59.615107 -2.378188 -0.170806 10.277100 -13.435583 17.492922 -1.192404 17.419865 4.855641 -9.013955 
200.335403 91.916702 -529.896423 91.562907 3.426716 91.176325 -174.136861 -0.584111 -177.878261 -6.624516 -3.025304 -2.384017 80.798870 1.702198 -0.153932 21.454553 0.003103 0.000003 -176.938714 2.018657 -178.876125 -14.228544 1.676409 2.236853 84.266537 -1.594580 0.044982 21.454562 -0.003103 -0.000016 5.944762 -0.472547 -0.118805 1.880645 -0.922821 -0.266096 1.562508 -0.924277 -0.260515 20.237127 5.956422 0.107837 -16.575433 -4.814118 1.720859 -55.666936 -83.318507 -126.719270 -13.478999 -3.551017 -5.130548 -6.404369 -12.700931 0.841853 14.131521 7.969231 8.299885 -122.980602 89.121736 58.771517 -2.353216 -0.173727 10.267815 -13.431980 17.583721 -1.198026 17.375436 4.702655 -9.124400 
